<?xml version="1.0" standalone="no"?>
<!DOCTYPE svg PUBLIC "-//W3C//DTD SVG 20010904//EN"
 "http://www.w3.org/TR/2001/REC-SVG-20010904/DTD/svg10.dtd">
<svg version="1.0" xmlns="http://www.w3.org/2000/svg"
 width="16.000000pt" height="16.000000pt" viewBox="0 0 16.000000 16.000000"
 preserveAspectRatio="xMidYMid meet">
<metadata>
Created by potrace 1.11, written by Peter Selinger 2001-2013
</metadata>
<g transform="translate(0.000000,16.000000) scale(0.004000,-0.004000)"
fill="#000000" stroke="none">
<path d="M2065 3518 c-131 -17 -204 -39 -239 -71 -13 -12 -55 -83 -93 -157
-38 -74 -78 -148 -88 -165 -55 -87 -162 -142 -310 -160 -11 -2 -45 -6 -75 -9
-30 -4 -71 -9 -90 -11 -82 -11 -195 -24 -260 -30 -19 -2 -55 -7 -80 -10 -75
-11 -103 -14 -160 -20 -113 -11 -186 -37 -272 -95 -110 -73 -184 -170 -239
-314 -58 -149 -58 -150 -58 -1118 l-1 -888 1895 0 1895 0 0 993 c0 1105 2
1067 -65 1126 -37 32 -86 49 -168 57 -81 8 -84 15 -52 107 9 26 18 65 20 85 3
33 -2 42 -41 79 -71 68 -261 155 -389 178 -67 11 -72 11 -115 -11 -25 -13 -50
-24 -57 -24 -22 0 -70 78 -148 235 -74 151 -75 153 -122 172 -54 23 -89 32
-148 40 -22 3 -51 7 -65 9 -47 9 -415 11 -475 2z"/>
</g>
</svg>
